<svg xmlns="http://www.w3.org/2000/svg" viewBox="0 0 29.948 29.929">
  <defs>
    <style>
      .cls-1 {
        fill: #01ac77;
      }
    </style>
  </defs>
  <g id="phone-receiver" transform="translate(0 -0.188)">
    <g id="Group_14" data-name="Group 14" transform="translate(0 0.188)">
      <path id="Path_7" data-name="Path 7" class="cls-1" d="M29.934,23.808a1.448,1.448,0,0,1-.444,1.268l-4.217,4.185a2.373,2.373,0,0,1-.745.539,3.079,3.079,0,0,1-.9.285q-.032,0-.19.016t-.412.016a14.616,14.616,0,0,1-1.95-.206,14.808,14.808,0,0,1-3.3-1.015,27.676,27.676,0,0,1-4.423-2.425A32.975,32.975,0,0,1,8.09,22.032a34.741,34.741,0,0,1-3.678-4.185,29.817,29.817,0,0,1-2.346-3.694A19.893,19.893,0,0,1,.734,11.078,16.316,16.316,0,0,1,.132,8.7,7.853,7.853,0,0,1,.005,7.131Q.037,6.561.037,6.5a3.082,3.082,0,0,1,.285-.9,2.376,2.376,0,0,1,.539-.745L5.078.632A1.4,1.4,0,0,1,6.093.188a1.183,1.183,0,0,1,.729.238,2.2,2.2,0,0,1,.539.587l3.392,6.436a1.543,1.543,0,0,1,.159,1.11,1.976,1.976,0,0,1-.539,1.015L8.819,11.126a.529.529,0,0,0-.111.206.782.782,0,0,0-.048.238,5.725,5.725,0,0,0,.571,1.522A13.97,13.97,0,0,0,10.4,14.946a20.593,20.593,0,0,0,2.251,2.52,21,21,0,0,0,2.536,2.267,14.647,14.647,0,0,0,1.855,1.189,4.93,4.93,0,0,0,1.141.46l.4.079a.756.756,0,0,0,.206-.048A.529.529,0,0,0,19,21.3L20.8,19.464a1.942,1.942,0,0,1,1.332-.507,1.657,1.657,0,0,1,.856.19h.032l6.119,3.614A1.6,1.6,0,0,1,29.934,23.808Z" transform="translate(0 -0.188)"/>
    </g>
  </g>
</svg>
